<?xml version="1.0" encoding="UTF-8" standalone="no"?>
<!DOCTYPE svg PUBLIC "-//W3C//DTD SVG 1.1//EN"
 "http://www.w3.org/Graphics/SVG/1.1/DTD/svg11.dtd">
<!-- Generated by graphviz version 5.0.0 (20220707.1540)
 -->
<!-- Title: dependencies Pages: 1 -->
<svg width="292pt" height="174pt"
 viewBox="0.00 0.00 292.00 173.80" xmlns="http://www.w3.org/2000/svg" xmlns:xlink="http://www.w3.org/1999/xlink">
<g id="graph0" class="graph" transform="scale(1 1) rotate(0) translate(4 169.8)">
<title>dependencies</title>
<polygon fill="white" stroke="transparent" points="-4,4 -4,-169.8 288,-169.8 288,4 -4,4"/>
<text text-anchor="middle" x="142" y="-8.2" font-family="sans-serif" font-size="14.00">dependencies</text>
<g id="clust1" class="cluster">
<title>cluster_SmartNodeNetworkModule</title>
<polygon fill="none" stroke="black" stroke-dasharray="1,5" points="8,-32.8 8,-157.8 276,-157.8 276,-32.8 8,-32.8"/>
</g>
<g id="clust6" class="cluster">
<title>cluster_SmartNodeNetworkModule_providers</title>
<polygon fill="none" stroke="black" points="16,-40.8 16,-92.8 268,-92.8 268,-40.8 16,-40.8"/>
</g>
<!-- SmartNodeNetworkService -->
<g id="node1" class="node">
<title>SmartNodeNetworkService</title>
<ellipse fill="#fdb462" stroke="black" cx="142" cy="-66.8" rx="117.54" ry="18"/>
<text text-anchor="middle" x="142" y="-62.6" font-family="Times,serif" font-size="14.00">SmartNodeNetworkService</text>
</g>
<!-- SmartNodeNetworkModule -->
<g id="node2" class="node">
<title>SmartNodeNetworkModule</title>
<polygon fill="#8dd3c7" stroke="black" points="228.3,-149.8 225.3,-153.8 204.3,-153.8 201.3,-149.8 55.7,-149.8 55.7,-113.8 228.3,-113.8 228.3,-149.8"/>
<text text-anchor="middle" x="142" y="-127.6" font-family="Times,serif" font-size="14.00">SmartNodeNetworkModule</text>
</g>
<!-- SmartNodeNetworkService&#45;&gt;SmartNodeNetworkModule -->
<g id="edge1" class="edge">
<title>SmartNodeNetworkService&#45;&gt;SmartNodeNetworkModule</title>
<path fill="none" stroke="black" d="M142,-84.91C142,-84.91 142,-103.79 142,-103.79"/>
<polygon fill="black" stroke="black" points="138.5,-103.79 142,-113.79 145.5,-103.79 138.5,-103.79"/>
</g>
</g>
</svg>
