<?xml version="1.0" encoding="UTF-8" standalone="no"?>
<!DOCTYPE svg PUBLIC "-//W3C//DTD SVG 1.1//EN"
 "http://www.w3.org/Graphics/SVG/1.1/DTD/svg11.dtd">
<!-- Generated by graphviz version 5.0.0 (20220707.1540)
 -->
<!-- Title: dependencies Pages: 1 -->
<svg width="454pt" height="174pt"
 viewBox="0.00 0.00 454.00 173.80" xmlns="http://www.w3.org/2000/svg" xmlns:xlink="http://www.w3.org/1999/xlink">
<g id="graph0" class="graph" transform="scale(1 1) rotate(0) translate(4 169.8)">
<title>dependencies</title>
<polygon fill="white" stroke="transparent" points="-4,4 -4,-169.8 450,-169.8 450,4 -4,4"/>
<text text-anchor="middle" x="223" y="-8.2" font-family="sans-serif" font-size="14.00">dependencies</text>
<g id="clust1" class="cluster">
<title>cluster_SmartNodeRestModule</title>
<polygon fill="none" stroke="black" stroke-dasharray="1,5" points="8,-32.8 8,-157.8 438,-157.8 438,-32.8 8,-32.8"/>
</g>
<g id="clust3" class="cluster">
<title>cluster_SmartNodeRestModule_imports</title>
<polygon fill="none" stroke="black" points="242,-40.8 242,-92.8 430,-92.8 430,-40.8 242,-40.8"/>
</g>
<g id="clust6" class="cluster">
<title>cluster_SmartNodeRestModule_providers</title>
<polygon fill="none" stroke="black" points="16,-40.8 16,-92.8 234,-92.8 234,-40.8 16,-40.8"/>
</g>
<!-- SmartNodeNetworkModule -->
<g id="node1" class="node">
<title>SmartNodeNetworkModule</title>
<polygon fill="#8dd3c7" stroke="black" points="422.3,-84.8 419.3,-88.8 398.3,-88.8 395.3,-84.8 249.7,-84.8 249.7,-48.8 422.3,-48.8 422.3,-84.8"/>
<text text-anchor="middle" x="336" y="-62.6" font-family="Times,serif" font-size="14.00">SmartNodeNetworkModule</text>
</g>
<!-- SmartNodeRestModule -->
<g id="node2" class="node">
<title>SmartNodeRestModule</title>
<polygon fill="#8dd3c7" stroke="black" points="304.21,-149.8 301.21,-153.8 280.21,-153.8 277.21,-149.8 155.79,-149.8 155.79,-113.8 304.21,-113.8 304.21,-149.8"/>
<text text-anchor="middle" x="230" y="-127.6" font-family="Times,serif" font-size="14.00">SmartNodeRestModule</text>
</g>
<!-- SmartNodeNetworkModule&#45;&gt;SmartNodeRestModule -->
<g id="edge1" class="edge">
<title>SmartNodeNetworkModule&#45;&gt;SmartNodeRestModule</title>
<path fill="none" stroke="black" d="M276.98,-84.91C276.98,-84.91 276.98,-103.79 276.98,-103.79"/>
<polygon fill="black" stroke="black" points="273.48,-103.79 276.98,-113.79 280.48,-103.79 273.48,-103.79"/>
</g>
<!-- SmartNodeRestService -->
<g id="node3" class="node">
<title>SmartNodeRestService</title>
<ellipse fill="#fdb462" stroke="black" cx="125" cy="-66.8" rx="101.29" ry="18"/>
<text text-anchor="middle" x="125" y="-62.6" font-family="Times,serif" font-size="14.00">SmartNodeRestService</text>
</g>
<!-- SmartNodeRestService&#45;&gt;SmartNodeRestModule -->
<g id="edge2" class="edge">
<title>SmartNodeRestService&#45;&gt;SmartNodeRestModule</title>
<path fill="none" stroke="black" d="M191.02,-80.58C191.02,-80.58 191.02,-103.35 191.02,-103.35"/>
<polygon fill="black" stroke="black" points="187.52,-103.35 191.02,-113.35 194.52,-103.35 187.52,-103.35"/>
</g>
</g>
</svg>
