<?xml version="1.0" encoding="UTF-8" standalone="no"?>
<!DOCTYPE svg PUBLIC "-//W3C//DTD SVG 1.1//EN"
 "http://www.w3.org/Graphics/SVG/1.1/DTD/svg11.dtd">
<!-- Generated by graphviz version 5.0.0 (20220707.1540)
 -->
<!-- Title: dependencies Pages: 1 -->
<svg width="650pt" height="174pt"
 viewBox="0.00 0.00 650.00 173.80" xmlns="http://www.w3.org/2000/svg" xmlns:xlink="http://www.w3.org/1999/xlink">
<g id="graph0" class="graph" transform="scale(1 1) rotate(0) translate(4 169.8)">
<title>dependencies</title>
<polygon fill="white" stroke="transparent" points="-4,4 -4,-169.8 646,-169.8 646,4 -4,4"/>
<text text-anchor="middle" x="321" y="-8.2" font-family="sans-serif" font-size="14.00">dependencies</text>
<g id="clust1" class="cluster">
<title>cluster_SmartNodeHederaModule</title>
<polygon fill="none" stroke="black" stroke-dasharray="1,5" points="8,-32.8 8,-157.8 634,-157.8 634,-32.8 8,-32.8"/>
</g>
<g id="clust3" class="cluster">
<title>cluster_SmartNodeHederaModule_imports</title>
<polygon fill="none" stroke="black" points="264,-40.8 264,-92.8 626,-92.8 626,-40.8 264,-40.8"/>
</g>
<g id="clust6" class="cluster">
<title>cluster_SmartNodeHederaModule_providers</title>
<polygon fill="none" stroke="black" points="16,-40.8 16,-92.8 256,-92.8 256,-40.8 16,-40.8"/>
</g>
<!-- SmartNodeHashPackModule -->
<g id="node1" class="node">
<title>SmartNodeHashPackModule</title>
<polygon fill="#8dd3c7" stroke="black" points="617.8,-84.8 614.8,-88.8 593.8,-88.8 590.8,-84.8 438.2,-84.8 438.2,-48.8 617.8,-48.8 617.8,-84.8"/>
<text text-anchor="middle" x="528" y="-62.6" font-family="Times,serif" font-size="14.00">SmartNodeHashPackModule</text>
</g>
<!-- SmartNodeHederaModule -->
<g id="node3" class="node">
<title>SmartNodeHederaModule</title>
<polygon fill="#8dd3c7" stroke="black" points="427.73,-149.8 424.73,-153.8 403.73,-153.8 400.73,-149.8 264.27,-149.8 264.27,-113.8 427.73,-113.8 427.73,-149.8"/>
<text text-anchor="middle" x="346" y="-127.6" font-family="Times,serif" font-size="14.00">SmartNodeHederaModule</text>
</g>
<!-- SmartNodeHashPackModule&#45;&gt;SmartNodeHederaModule -->
<g id="edge1" class="edge">
<title>SmartNodeHashPackModule&#45;&gt;SmartNodeHederaModule</title>
<path fill="none" stroke="black" d="M438.01,-66.8C429.51,-66.8 423.98,-66.8 423.98,-66.8 423.98,-66.8 423.98,-103.69 423.98,-103.69"/>
<polygon fill="black" stroke="black" points="420.48,-103.69 423.98,-113.69 427.48,-103.69 420.48,-103.69"/>
</g>
<!-- SmartNodeRestModule -->
<g id="node2" class="node">
<title>SmartNodeRestModule</title>
<polygon fill="#8dd3c7" stroke="black" points="420.21,-84.8 417.21,-88.8 396.21,-88.8 393.21,-84.8 271.79,-84.8 271.79,-48.8 420.21,-48.8 420.21,-84.8"/>
<text text-anchor="middle" x="346" y="-62.6" font-family="Times,serif" font-size="14.00">SmartNodeRestModule</text>
</g>
<!-- SmartNodeRestModule&#45;&gt;SmartNodeHederaModule -->
<g id="edge2" class="edge">
<title>SmartNodeRestModule&#45;&gt;SmartNodeHederaModule</title>
<path fill="none" stroke="black" d="M346,-84.91C346,-84.91 346,-103.79 346,-103.79"/>
<polygon fill="black" stroke="black" points="342.5,-103.79 346,-113.79 349.5,-103.79 342.5,-103.79"/>
</g>
<!-- SmartNodeHederaService -->
<g id="node4" class="node">
<title>SmartNodeHederaService</title>
<ellipse fill="#fdb462" stroke="black" cx="136" cy="-66.8" rx="111.71" ry="18"/>
<text text-anchor="middle" x="136" y="-62.6" font-family="Times,serif" font-size="14.00">SmartNodeHederaService</text>
</g>
<!-- SmartNodeHederaService&#45;&gt;SmartNodeHederaModule -->
<g id="edge3" class="edge">
<title>SmartNodeHederaService&#45;&gt;SmartNodeHederaModule</title>
<path fill="none" stroke="black" d="M247.97,-66.8C260.02,-66.8 268.02,-66.8 268.02,-66.8 268.02,-66.8 268.02,-103.69 268.02,-103.69"/>
<polygon fill="black" stroke="black" points="264.52,-103.69 268.02,-113.69 271.52,-103.69 264.52,-103.69"/>
</g>
</g>
</svg>
