<?xml version="1.0" encoding="UTF-8" standalone="no"?>
<!DOCTYPE svg PUBLIC "-//W3C//DTD SVG 1.1//EN"
 "http://www.w3.org/Graphics/SVG/1.1/DTD/svg11.dtd">
<!-- Generated by graphviz version 5.0.0 (20220707.1540)
 -->
<!-- Title: dependencies Pages: 1 -->
<svg width="1181pt" height="174pt"
 viewBox="0.00 0.00 1181.00 173.80" xmlns="http://www.w3.org/2000/svg" xmlns:xlink="http://www.w3.org/1999/xlink">
<g id="graph0" class="graph" transform="scale(1 1) rotate(0) translate(4 169.8)">
<title>dependencies</title>
<polygon fill="white" stroke="transparent" points="-4,4 -4,-169.8 1177,-169.8 1177,4 -4,4"/>
<text text-anchor="middle" x="586.5" y="-8.2" font-family="sans-serif" font-size="14.00">dependencies</text>
<g id="clust1" class="cluster">
<title>cluster_SmartNodeSdkModule</title>
<polygon fill="none" stroke="black" stroke-dasharray="1,5" points="8,-32.8 8,-157.8 1165,-157.8 1165,-32.8 8,-32.8"/>
</g>
<g id="clust3" class="cluster">
<title>cluster_SmartNodeSdkModule_imports</title>
<polygon fill="none" stroke="black" points="238,-40.8 238,-92.8 1157,-92.8 1157,-40.8 238,-40.8"/>
</g>
<g id="clust6" class="cluster">
<title>cluster_SmartNodeSdkModule_providers</title>
<polygon fill="none" stroke="black" points="16,-40.8 16,-92.8 230,-92.8 230,-40.8 16,-40.8"/>
</g>
<!-- SmartNodeHashPackModule -->
<g id="node1" class="node">
<title>SmartNodeHashPackModule</title>
<polygon fill="#8dd3c7" stroke="black" points="1148.8,-84.8 1145.8,-88.8 1124.8,-88.8 1121.8,-84.8 969.2,-84.8 969.2,-48.8 1148.8,-48.8 1148.8,-84.8"/>
<text text-anchor="middle" x="1059" y="-62.6" font-family="Times,serif" font-size="14.00">SmartNodeHashPackModule</text>
</g>
<!-- SmartNodeSdkModule -->
<g id="node6" class="node">
<title>SmartNodeSdkModule</title>
<polygon fill="#8dd3c7" stroke="black" points="666.6,-149.8 663.6,-153.8 642.6,-153.8 639.6,-149.8 521.4,-149.8 521.4,-113.8 666.6,-113.8 666.6,-149.8"/>
<text text-anchor="middle" x="594" y="-127.6" font-family="Times,serif" font-size="14.00">SmartNodeSdkModule</text>
</g>
<!-- SmartNodeHashPackModule&#45;&gt;SmartNodeSdkModule -->
<g id="edge1" class="edge">
<title>SmartNodeHashPackModule&#45;&gt;SmartNodeSdkModule</title>
<path fill="none" stroke="black" d="M1059,-85.08C1059,-106.12 1059,-137.8 1059,-137.8 1059,-137.8 676.66,-137.8 676.66,-137.8"/>
<polygon fill="black" stroke="black" points="676.66,-134.3 666.66,-137.8 676.66,-141.3 676.66,-134.3"/>
</g>
<!-- SmartNodeHederaModule -->
<g id="node2" class="node">
<title>SmartNodeHederaModule</title>
<polygon fill="#8dd3c7" stroke="black" points="950.73,-84.8 947.73,-88.8 926.73,-88.8 923.73,-84.8 787.27,-84.8 787.27,-48.8 950.73,-48.8 950.73,-84.8"/>
<text text-anchor="middle" x="869" y="-62.6" font-family="Times,serif" font-size="14.00">SmartNodeHederaModule</text>
</g>
<!-- SmartNodeHederaModule&#45;&gt;SmartNodeSdkModule -->
<g id="edge2" class="edge">
<title>SmartNodeHederaModule&#45;&gt;SmartNodeSdkModule</title>
<path fill="none" stroke="black" d="M869,-84.82C869,-102.17 869,-125.8 869,-125.8 869,-125.8 676.61,-125.8 676.61,-125.8"/>
<polygon fill="black" stroke="black" points="676.61,-122.3 666.61,-125.8 676.61,-129.3 676.61,-122.3"/>
</g>
<!-- SmartNodeNetworkModule -->
<g id="node3" class="node">
<title>SmartNodeNetworkModule</title>
<polygon fill="#8dd3c7" stroke="black" points="769.3,-84.8 766.3,-88.8 745.3,-88.8 742.3,-84.8 596.7,-84.8 596.7,-48.8 769.3,-48.8 769.3,-84.8"/>
<text text-anchor="middle" x="683" y="-62.6" font-family="Times,serif" font-size="14.00">SmartNodeNetworkModule</text>
</g>
<!-- SmartNodeNetworkModule&#45;&gt;SmartNodeSdkModule -->
<g id="edge3" class="edge">
<title>SmartNodeNetworkModule&#45;&gt;SmartNodeSdkModule</title>
<path fill="none" stroke="black" d="M631.7,-84.91C631.7,-84.91 631.7,-103.79 631.7,-103.79"/>
<polygon fill="black" stroke="black" points="628.2,-103.79 631.7,-113.79 635.2,-103.79 628.2,-103.79"/>
</g>
<!-- SmartNodeRestModule -->
<g id="node4" class="node">
<title>SmartNodeRestModule</title>
<polygon fill="#8dd3c7" stroke="black" points="579.21,-84.8 576.21,-88.8 555.21,-88.8 552.21,-84.8 430.79,-84.8 430.79,-48.8 579.21,-48.8 579.21,-84.8"/>
<text text-anchor="middle" x="505" y="-62.6" font-family="Times,serif" font-size="14.00">SmartNodeRestModule</text>
</g>
<!-- SmartNodeRestModule&#45;&gt;SmartNodeSdkModule -->
<g id="edge4" class="edge">
<title>SmartNodeRestModule&#45;&gt;SmartNodeSdkModule</title>
<path fill="none" stroke="black" d="M550.28,-84.91C550.28,-84.91 550.28,-103.79 550.28,-103.79"/>
<polygon fill="black" stroke="black" points="546.78,-103.79 550.28,-113.79 553.78,-103.79 546.78,-103.79"/>
</g>
<!-- SmartNodeSocketsModule -->
<g id="node5" class="node">
<title>SmartNodeSocketsModule</title>
<polygon fill="#8dd3c7" stroke="black" points="412.37,-84.8 409.37,-88.8 388.37,-88.8 385.37,-84.8 245.63,-84.8 245.63,-48.8 412.37,-48.8 412.37,-84.8"/>
<text text-anchor="middle" x="329" y="-62.6" font-family="Times,serif" font-size="14.00">SmartNodeSocketsModule</text>
</g>
<!-- SmartNodeSocketsModule&#45;&gt;SmartNodeSdkModule -->
<g id="edge5" class="edge">
<title>SmartNodeSocketsModule&#45;&gt;SmartNodeSdkModule</title>
<path fill="none" stroke="black" d="M329,-84.82C329,-102.17 329,-125.8 329,-125.8 329,-125.8 511.24,-125.8 511.24,-125.8"/>
<polygon fill="black" stroke="black" points="511.24,-129.3 521.24,-125.8 511.24,-122.3 511.24,-129.3"/>
</g>
<!-- SmartNodeSdkService -->
<g id="node7" class="node">
<title>SmartNodeSdkService</title>
<ellipse fill="#fdb462" stroke="black" cx="123" cy="-66.8" rx="99.01" ry="18"/>
<text text-anchor="middle" x="123" y="-62.6" font-family="Times,serif" font-size="14.00">SmartNodeSdkService</text>
</g>
<!-- SmartNodeSdkService&#45;&gt;SmartNodeSdkModule -->
<g id="edge6" class="edge">
<title>SmartNodeSdkService&#45;&gt;SmartNodeSdkModule</title>
<path fill="none" stroke="black" d="M123,-85.08C123,-106.12 123,-137.8 123,-137.8 123,-137.8 511.44,-137.8 511.44,-137.8"/>
<polygon fill="black" stroke="black" points="511.44,-141.3 521.44,-137.8 511.44,-134.3 511.44,-141.3"/>
</g>
</g>
</svg>
