<?xml version="1.0" encoding="UTF-8" standalone="no"?>
<!DOCTYPE svg PUBLIC "-//W3C//DTD SVG 1.1//EN"
 "http://www.w3.org/Graphics/SVG/1.1/DTD/svg11.dtd">
<!-- Generated by graphviz version 5.0.0 (20220707.1540)
 -->
<!-- Title: dependencies Pages: 1 -->
<svg width="480pt" height="174pt"
 viewBox="0.00 0.00 480.00 173.80" xmlns="http://www.w3.org/2000/svg" xmlns:xlink="http://www.w3.org/1999/xlink">
<g id="graph0" class="graph" transform="scale(1 1) rotate(0) translate(4 169.8)">
<title>dependencies</title>
<polygon fill="white" stroke="transparent" points="-4,4 -4,-169.8 476,-169.8 476,4 -4,4"/>
<text text-anchor="middle" x="236" y="-8.2" font-family="sans-serif" font-size="14.00">dependencies</text>
<g id="clust1" class="cluster">
<title>cluster_SmartNodeSocketsModule</title>
<polygon fill="none" stroke="black" stroke-dasharray="1,5" points="8,-32.8 8,-157.8 464,-157.8 464,-32.8 8,-32.8"/>
</g>
<g id="clust6" class="cluster">
<title>cluster_SmartNodeSocketsModule_providers</title>
<polygon fill="none" stroke="black" points="212,-40.8 212,-92.8 456,-92.8 456,-40.8 212,-40.8"/>
</g>
<g id="clust3" class="cluster">
<title>cluster_SmartNodeSocketsModule_imports</title>
<polygon fill="none" stroke="black" points="16,-40.8 16,-92.8 204,-92.8 204,-40.8 16,-40.8"/>
</g>
<!-- SmartNodeNetworkModule -->
<g id="node1" class="node">
<title>SmartNodeNetworkModule</title>
<polygon fill="#8dd3c7" stroke="black" points="196.3,-84.8 193.3,-88.8 172.3,-88.8 169.3,-84.8 23.7,-84.8 23.7,-48.8 196.3,-48.8 196.3,-84.8"/>
<text text-anchor="middle" x="110" y="-62.6" font-family="Times,serif" font-size="14.00">SmartNodeNetworkModule</text>
</g>
<!-- SmartNodeSocketsModule -->
<g id="node2" class="node">
<title>SmartNodeSocketsModule</title>
<polygon fill="#8dd3c7" stroke="black" points="305.37,-149.8 302.37,-153.8 281.37,-153.8 278.37,-149.8 138.63,-149.8 138.63,-113.8 305.37,-113.8 305.37,-149.8"/>
<text text-anchor="middle" x="222" y="-127.6" font-family="Times,serif" font-size="14.00">SmartNodeSocketsModule</text>
</g>
<!-- SmartNodeNetworkModule&#45;&gt;SmartNodeSocketsModule -->
<g id="edge1" class="edge">
<title>SmartNodeNetworkModule&#45;&gt;SmartNodeSocketsModule</title>
<path fill="none" stroke="black" d="M167.36,-84.91C167.36,-84.91 167.36,-103.79 167.36,-103.79"/>
<polygon fill="black" stroke="black" points="163.86,-103.79 167.36,-113.79 170.86,-103.79 163.86,-103.79"/>
</g>
<!-- SmartNodeSocketsService -->
<g id="node3" class="node">
<title>SmartNodeSocketsService</title>
<ellipse fill="#fdb462" stroke="black" cx="334" cy="-66.8" rx="114.04" ry="18"/>
<text text-anchor="middle" x="334" y="-62.6" font-family="Times,serif" font-size="14.00">SmartNodeSocketsService</text>
</g>
<!-- SmartNodeSocketsService&#45;&gt;SmartNodeSocketsModule -->
<g id="edge2" class="edge">
<title>SmartNodeSocketsService&#45;&gt;SmartNodeSocketsModule</title>
<path fill="none" stroke="black" d="M262.71,-80.9C262.71,-80.9 262.71,-103.52 262.71,-103.52"/>
<polygon fill="black" stroke="black" points="259.21,-103.52 262.71,-113.52 266.21,-103.52 259.21,-103.52"/>
</g>
</g>
</svg>
