<?xml version="1.0" encoding="UTF-8" standalone="no"?>
<!DOCTYPE svg PUBLIC "-//W3C//DTD SVG 1.1//EN"
 "http://www.w3.org/Graphics/SVG/1.1/DTD/svg11.dtd">
<!-- Generated by graphviz version 5.0.0 (20220707.1540)
 -->
<!-- Title: dependencies Pages: 1 -->
<svg width="1191pt" height="394pt"
 viewBox="0.00 0.00 1191.00 393.80" xmlns="http://www.w3.org/2000/svg" xmlns:xlink="http://www.w3.org/1999/xlink">
<g id="graph0" class="graph" transform="scale(1 1) rotate(0) translate(4 389.8)">
<title>dependencies</title>
<polygon fill="white" stroke="transparent" points="-4,4 -4,-389.8 1187,-389.8 1187,4 -4,4"/>
<text text-anchor="middle" x="591.5" y="-8.2" font-family="sans-serif" font-size="14.00">dependencies</text>
<g id="clust1" class="cluster">
<title>cluster_SmartNodeHashPackModule</title>
<polygon fill="none" stroke="black" stroke-dasharray="1,5" points="8,-100.8 8,-236.8 286,-236.8 286,-100.8 8,-100.8"/>
</g>
<g id="clust6" class="cluster">
<title>cluster_SmartNodeHashPackModule_providers</title>
<polygon fill="none" stroke="black" points="16,-108.8 16,-160.8 278,-160.8 278,-108.8 16,-108.8"/>
</g>
<g id="clust7" class="cluster">
<title>cluster_SmartNodeHederaModule</title>
<polygon fill="none" stroke="black" stroke-dasharray="1,5" points="294,-176.8 294,-312.8 722,-312.8 722,-176.8 294,-176.8"/>
</g>
<g id="clust9" class="cluster">
<title>cluster_SmartNodeHederaModule_imports</title>
<polygon fill="none" stroke="black" points="550,-184.8 550,-236.8 714,-236.8 714,-184.8 550,-184.8"/>
</g>
<g id="clust12" class="cluster">
<title>cluster_SmartNodeHederaModule_providers</title>
<polygon fill="none" stroke="black" points="302,-184.8 302,-236.8 542,-236.8 542,-184.8 302,-184.8"/>
</g>
<g id="clust13" class="cluster">
<title>cluster_SmartNodeNetworkModule</title>
<polygon fill="none" stroke="black" stroke-dasharray="1,5" points="763,-32.8 763,-160.8 1031,-160.8 1031,-32.8 763,-32.8"/>
</g>
<g id="clust18" class="cluster">
<title>cluster_SmartNodeNetworkModule_providers</title>
<polygon fill="none" stroke="black" points="771,-40.8 771,-92.8 1023,-92.8 1023,-40.8 771,-40.8"/>
</g>
<g id="clust19" class="cluster">
<title>cluster_SmartNodeRestModule</title>
<polygon fill="none" stroke="black" stroke-dasharray="1,5" points="515,-100.8 515,-168.8 749,-168.8 749,-100.8 515,-100.8"/>
</g>
<g id="clust24" class="cluster">
<title>cluster_SmartNodeRestModule_providers</title>
<polygon fill="none" stroke="black" points="523,-108.8 523,-160.8 741,-160.8 741,-108.8 523,-108.8"/>
</g>
<g id="clust25" class="cluster">
<title>cluster_SmartNodeSdkModule</title>
<polygon fill="none" stroke="black" stroke-dasharray="1,5" points="730,-252.8 730,-377.8 1150,-377.8 1150,-252.8 730,-252.8"/>
</g>
<g id="clust27" class="cluster">
<title>cluster_SmartNodeSdkModule_imports</title>
<polygon fill="none" stroke="black" points="960,-260.8 960,-312.8 1142,-312.8 1142,-260.8 960,-260.8"/>
</g>
<g id="clust30" class="cluster">
<title>cluster_SmartNodeSdkModule_providers</title>
<polygon fill="none" stroke="black" points="738,-260.8 738,-312.8 952,-312.8 952,-260.8 738,-260.8"/>
</g>
<g id="clust31" class="cluster">
<title>cluster_SmartNodeSocketsModule</title>
<polygon fill="none" stroke="black" stroke-dasharray="1,5" points="915,-176.8 915,-244.8 1175,-244.8 1175,-176.8 915,-176.8"/>
</g>
<g id="clust36" class="cluster">
<title>cluster_SmartNodeSocketsModule_providers</title>
<polygon fill="none" stroke="black" points="923,-184.8 923,-236.8 1167,-236.8 1167,-184.8 923,-184.8"/>
</g>
<!-- SmartNodeHashPackService -->
<g id="node1" class="node">
<title>SmartNodeHashPackService</title>
<ellipse fill="#fdb462" stroke="black" cx="147" cy="-134.8" rx="122.69" ry="18"/>
<text text-anchor="middle" x="147" y="-130.6" font-family="Times,serif" font-size="14.00">SmartNodeHashPackService</text>
</g>
<!-- SmartNodeHashPackModule -->
<g id="node2" class="node">
<title>SmartNodeHashPackModule</title>
<polygon fill="#8dd3c7" stroke="black" points="277.8,-228.8 274.8,-232.8 253.8,-232.8 250.8,-228.8 98.2,-228.8 98.2,-192.8 277.8,-192.8 277.8,-228.8"/>
<text text-anchor="middle" x="188" y="-206.6" font-family="Times,serif" font-size="14.00">SmartNodeHashPackModule</text>
</g>
<!-- SmartNodeHashPackService&#45;&gt;SmartNodeHashPackModule -->
<g id="edge1" class="edge">
<title>SmartNodeHashPackService&#45;&gt;SmartNodeHashPackModule</title>
<path fill="none" stroke="black" d="M183.97,-152.05C183.97,-152.05 183.97,-182.56 183.97,-182.56"/>
<polygon fill="black" stroke="black" points="180.47,-182.56 183.97,-192.56 187.47,-182.56 180.47,-182.56"/>
</g>
<!-- SmartNodeHederaModule -->
<g id="node4" class="node">
<title>SmartNodeHederaModule</title>
<polygon fill="#8dd3c7" stroke="black" points="553.73,-304.8 550.73,-308.8 529.73,-308.8 526.73,-304.8 390.27,-304.8 390.27,-268.8 553.73,-268.8 553.73,-304.8"/>
<text text-anchor="middle" x="472" y="-282.6" font-family="Times,serif" font-size="14.00">SmartNodeHederaModule</text>
</g>
<!-- SmartNodeHashPackModule&#45;&gt;SmartNodeHederaModule -->
<g id="edge2" class="edge">
<title>SmartNodeHashPackModule&#45;&gt;SmartNodeHederaModule</title>
<path fill="none" stroke="black" d="M217.88,-228.81C217.88,-251.29 217.88,-286.8 217.88,-286.8 217.88,-286.8 380.2,-286.8 380.2,-286.8"/>
<polygon fill="black" stroke="black" points="380.2,-290.3 390.2,-286.8 380.2,-283.3 380.2,-290.3"/>
</g>
<!-- SmartNodeSdkModule -->
<g id="node10" class="node">
<title>SmartNodeSdkModule</title>
<polygon fill="#8dd3c7" stroke="black" points="900.6,-369.8 897.6,-373.8 876.6,-373.8 873.6,-369.8 755.4,-369.8 755.4,-333.8 900.6,-333.8 900.6,-369.8"/>
<text text-anchor="middle" x="828" y="-347.6" font-family="Times,serif" font-size="14.00">SmartNodeSdkModule</text>
</g>
<!-- SmartNodeHashPackModule&#45;&gt;SmartNodeSdkModule -->
<g id="edge8" class="edge">
<title>SmartNodeHashPackModule&#45;&gt;SmartNodeSdkModule</title>
<path fill="none" stroke="black" d="M158.12,-228.83C158.12,-269.1 158.12,-362.8 158.12,-362.8 158.12,-362.8 745.36,-362.8 745.36,-362.8"/>
<polygon fill="black" stroke="black" points="745.36,-366.3 755.36,-362.8 745.36,-359.3 745.36,-366.3"/>
</g>
<!-- SmartNodeRestModule -->
<g id="node3" class="node">
<title>SmartNodeRestModule</title>
<polygon fill="#8dd3c7" stroke="black" points="706.21,-228.8 703.21,-232.8 682.21,-232.8 679.21,-228.8 557.79,-228.8 557.79,-192.8 706.21,-192.8 706.21,-228.8"/>
<text text-anchor="middle" x="632" y="-206.6" font-family="Times,serif" font-size="14.00">SmartNodeRestModule</text>
</g>
<!-- SmartNodeRestModule&#45;&gt;SmartNodeHederaModule -->
<g id="edge3" class="edge">
<title>SmartNodeRestModule&#45;&gt;SmartNodeHederaModule</title>
<path fill="none" stroke="black" d="M557.63,-210.8C549.37,-210.8 543.86,-210.8 543.86,-210.8 543.86,-210.8 543.86,-258.79 543.86,-258.79"/>
<polygon fill="black" stroke="black" points="540.36,-258.79 543.86,-268.79 547.36,-258.79 540.36,-258.79"/>
</g>
<!-- SmartNodeRestModule&#45;&gt;SmartNodeSdkModule -->
<g id="edge11" class="edge">
<title>SmartNodeRestModule&#45;&gt;SmartNodeSdkModule</title>
<path fill="none" stroke="black" d="M632,-228.84C632,-266.25 632,-348.8 632,-348.8 632,-348.8 745.3,-348.8 745.3,-348.8"/>
<polygon fill="black" stroke="black" points="745.3,-352.3 755.3,-348.8 745.3,-345.3 745.3,-352.3"/>
</g>
<!-- SmartNodeHederaModule&#45;&gt;SmartNodeSdkModule -->
<g id="edge9" class="edge">
<title>SmartNodeHederaModule&#45;&gt;SmartNodeSdkModule</title>
<path fill="none" stroke="black" d="M472,-304.93C472,-325.37 472,-355.8 472,-355.8 472,-355.8 745.1,-355.8 745.1,-355.8"/>
<polygon fill="black" stroke="black" points="745.1,-359.3 755.1,-355.8 745.1,-352.3 745.1,-359.3"/>
</g>
<!-- SmartNodeHederaService -->
<g id="node5" class="node">
<title>SmartNodeHederaService</title>
<ellipse fill="#fdb462" stroke="black" cx="422" cy="-210.8" rx="111.71" ry="18"/>
<text text-anchor="middle" x="422" y="-206.6" font-family="Times,serif" font-size="14.00">SmartNodeHederaService</text>
</g>
<!-- SmartNodeHederaService&#45;&gt;SmartNodeHederaModule -->
<g id="edge4" class="edge">
<title>SmartNodeHederaService&#45;&gt;SmartNodeHederaModule</title>
<path fill="none" stroke="black" d="M461.99,-227.67C461.99,-227.67 461.99,-258.65 461.99,-258.65"/>
<polygon fill="black" stroke="black" points="458.49,-258.65 461.99,-268.65 465.49,-258.65 458.49,-258.65"/>
</g>
<!-- SmartNodeNetworkService -->
<g id="node6" class="node">
<title>SmartNodeNetworkService</title>
<ellipse fill="#fdb462" stroke="black" cx="897" cy="-66.8" rx="117.54" ry="18"/>
<text text-anchor="middle" x="897" y="-62.6" font-family="Times,serif" font-size="14.00">SmartNodeNetworkService</text>
</g>
<!-- SmartNodeNetworkModule -->
<g id="node7" class="node">
<title>SmartNodeNetworkModule</title>
<polygon fill="#8dd3c7" stroke="black" points="983.3,-152.8 980.3,-156.8 959.3,-156.8 956.3,-152.8 810.7,-152.8 810.7,-116.8 983.3,-116.8 983.3,-152.8"/>
<text text-anchor="middle" x="897" y="-130.6" font-family="Times,serif" font-size="14.00">SmartNodeNetworkModule</text>
</g>
<!-- SmartNodeNetworkService&#45;&gt;SmartNodeNetworkModule -->
<g id="edge5" class="edge">
<title>SmartNodeNetworkService&#45;&gt;SmartNodeNetworkModule</title>
<path fill="none" stroke="black" d="M897,-85.02C897,-85.02 897,-106.53 897,-106.53"/>
<polygon fill="black" stroke="black" points="893.5,-106.53 897,-116.53 900.5,-106.53 893.5,-106.53"/>
</g>
<!-- SmartNodeNetworkModule&#45;&gt;SmartNodeRestModule -->
<g id="edge6" class="edge">
<title>SmartNodeNetworkModule&#45;&gt;SmartNodeRestModule</title>
<path fill="none" stroke="black" d="M850.89,-152.81C850.89,-175.29 850.89,-210.8 850.89,-210.8 850.89,-210.8 716.11,-210.8 716.11,-210.8"/>
<polygon fill="black" stroke="black" points="716.11,-207.3 706.11,-210.8 716.11,-214.3 716.11,-207.3"/>
</g>
<!-- SmartNodeSocketsModule -->
<g id="node9" class="node">
<title>SmartNodeSocketsModule</title>
<polygon fill="#8dd3c7" stroke="black" points="1134.37,-304.8 1131.37,-308.8 1110.37,-308.8 1107.37,-304.8 967.63,-304.8 967.63,-268.8 1134.37,-268.8 1134.37,-304.8"/>
<text text-anchor="middle" x="1051" y="-282.6" font-family="Times,serif" font-size="14.00">SmartNodeSocketsModule</text>
</g>
<!-- SmartNodeNetworkModule&#45;&gt;SmartNodeSocketsModule -->
<g id="edge14" class="edge">
<title>SmartNodeNetworkModule&#45;&gt;SmartNodeSocketsModule</title>
<path fill="none" stroke="black" d="M890.94,-152.86C890.94,-185.01 890.94,-248.8 890.94,-248.8 890.94,-248.8 1023.19,-248.8 1023.19,-248.8 1023.19,-248.8 1023.19,-258.69 1023.19,-258.69"/>
<polygon fill="black" stroke="black" points="1019.69,-258.69 1023.19,-268.69 1026.69,-258.69 1019.69,-258.69"/>
</g>
<!-- SmartNodeNetworkModule&#45;&gt;SmartNodeSdkModule -->
<g id="edge10" class="edge">
<title>SmartNodeNetworkModule&#45;&gt;SmartNodeSdkModule</title>
<path fill="none" stroke="black" d="M810.46,-134.8C773.87,-134.8 739.57,-134.8 739.57,-134.8 739.57,-134.8 739.57,-341.8 739.57,-341.8 739.57,-341.8 745.38,-341.8 745.38,-341.8"/>
<polygon fill="black" stroke="black" points="745.38,-345.3 755.38,-341.8 745.38,-338.3 745.38,-345.3"/>
</g>
<!-- SmartNodeRestService -->
<g id="node8" class="node">
<title>SmartNodeRestService</title>
<ellipse fill="#fdb462" stroke="black" cx="632" cy="-134.8" rx="101.29" ry="18"/>
<text text-anchor="middle" x="632" y="-130.6" font-family="Times,serif" font-size="14.00">SmartNodeRestService</text>
</g>
<!-- SmartNodeRestService&#45;&gt;SmartNodeRestModule -->
<g id="edge7" class="edge">
<title>SmartNodeRestService&#45;&gt;SmartNodeRestModule</title>
<path fill="none" stroke="black" d="M632,-152.81C632,-152.81 632,-182.65 632,-182.65"/>
<polygon fill="black" stroke="black" points="628.5,-182.65 632,-192.65 635.5,-182.65 628.5,-182.65"/>
</g>
<!-- SmartNodeSocketsModule&#45;&gt;SmartNodeSdkModule -->
<g id="edge12" class="edge">
<title>SmartNodeSocketsModule&#45;&gt;SmartNodeSdkModule</title>
<path fill="none" stroke="black" d="M1051,-304.91C1051,-324.14 1051,-351.8 1051,-351.8 1051,-351.8 910.71,-351.8 910.71,-351.8"/>
<polygon fill="black" stroke="black" points="910.71,-348.3 900.71,-351.8 910.71,-355.3 910.71,-348.3"/>
</g>
<!-- SmartNodeSdkService -->
<g id="node11" class="node">
<title>SmartNodeSdkService</title>
<ellipse fill="#fdb462" stroke="black" cx="845" cy="-286.8" rx="99.01" ry="18"/>
<text text-anchor="middle" x="845" y="-282.6" font-family="Times,serif" font-size="14.00">SmartNodeSdkService</text>
</g>
<!-- SmartNodeSdkService&#45;&gt;SmartNodeSdkModule -->
<g id="edge13" class="edge">
<title>SmartNodeSdkService&#45;&gt;SmartNodeSdkModule</title>
<path fill="none" stroke="black" d="M828,-304.56C828,-304.56 828,-323.61 828,-323.61"/>
<polygon fill="black" stroke="black" points="824.5,-323.61 828,-333.61 831.5,-323.61 824.5,-323.61"/>
</g>
<!-- SmartNodeSocketsService -->
<g id="node12" class="node">
<title>SmartNodeSocketsService</title>
<ellipse fill="#fdb462" stroke="black" cx="1045" cy="-210.8" rx="114.04" ry="18"/>
<text text-anchor="middle" x="1045" y="-206.6" font-family="Times,serif" font-size="14.00">SmartNodeSocketsService</text>
</g>
<!-- SmartNodeSocketsService&#45;&gt;SmartNodeSocketsModule -->
<g id="edge15" class="edge">
<title>SmartNodeSocketsService&#45;&gt;SmartNodeSocketsModule</title>
<path fill="none" stroke="black" d="M1078.81,-228.05C1078.81,-228.05 1078.81,-258.56 1078.81,-258.56"/>
<polygon fill="black" stroke="black" points="1075.31,-258.56 1078.81,-268.56 1082.31,-258.56 1075.31,-258.56"/>
</g>
</g>
</svg>
