<?xml version="1.0" encoding="UTF-8" standalone="no"?>
<!DOCTYPE svg PUBLIC "-//W3C//DTD SVG 1.1//EN"
 "http://www.w3.org/Graphics/SVG/1.1/DTD/svg11.dtd">
<!-- Generated by graphviz version 5.0.0 (20220707.1540)
 -->
<!-- Title: dependencies Pages: 1 -->
<svg width="302pt" height="174pt"
 viewBox="0.00 0.00 302.00 173.80" xmlns="http://www.w3.org/2000/svg" xmlns:xlink="http://www.w3.org/1999/xlink">
<g id="graph0" class="graph" transform="scale(1 1) rotate(0) translate(4 169.8)">
<title>dependencies</title>
<polygon fill="white" stroke="transparent" points="-4,4 -4,-169.8 298,-169.8 298,4 -4,4"/>
<text text-anchor="middle" x="147" y="-8.2" font-family="sans-serif" font-size="14.00">dependencies</text>
<g id="clust1" class="cluster">
<title>cluster_SmartNodeHashPackModule</title>
<polygon fill="none" stroke="black" stroke-dasharray="1,5" points="8,-32.8 8,-157.8 286,-157.8 286,-32.8 8,-32.8"/>
</g>
<g id="clust6" class="cluster">
<title>cluster_SmartNodeHashPackModule_providers</title>
<polygon fill="none" stroke="black" points="16,-40.8 16,-92.8 278,-92.8 278,-40.8 16,-40.8"/>
</g>
<!-- SmartNodeHashPackService -->
<g id="node1" class="node">
<title>SmartNodeHashPackService</title>
<ellipse fill="#fdb462" stroke="black" cx="147" cy="-66.8" rx="122.69" ry="18"/>
<text text-anchor="middle" x="147" y="-62.6" font-family="Times,serif" font-size="14.00">SmartNodeHashPackService</text>
</g>
<!-- SmartNodeHashPackModule -->
<g id="node2" class="node">
<title>SmartNodeHashPackModule</title>
<polygon fill="#8dd3c7" stroke="black" points="236.8,-149.8 233.8,-153.8 212.8,-153.8 209.8,-149.8 57.2,-149.8 57.2,-113.8 236.8,-113.8 236.8,-149.8"/>
<text text-anchor="middle" x="147" y="-127.6" font-family="Times,serif" font-size="14.00">SmartNodeHashPackModule</text>
</g>
<!-- SmartNodeHashPackService&#45;&gt;SmartNodeHashPackModule -->
<g id="edge1" class="edge">
<title>SmartNodeHashPackService&#45;&gt;SmartNodeHashPackModule</title>
<path fill="none" stroke="black" d="M147,-84.91C147,-84.91 147,-103.79 147,-103.79"/>
<polygon fill="black" stroke="black" points="143.5,-103.79 147,-113.79 150.5,-103.79 143.5,-103.79"/>
</g>
</g>
</svg>
